# xmcd
#
# Track frame offsets:
#	150
#	68712
#	98925
#	124920
#	133625
#	157710
#	191275
#
# Disc length: 3519 seconds
#
# Revision: 3
# Processed by: cddbd v1.5.2PL0 Copyright (c) Steve Scherf et al.
# Submitted via: EZCDAudioConverter 8.3.2.1
#
DISCID=540dbd07
DTITLE=DIVERSE - 50 NON-STOP COUNTRY HITS
DYEAR=1900
DGENRE=country
TTITLE0=Hekko I Love You ...
TTITLE1=Some Days Are Daimonds, ...
TTITLE2=You Never Gave Up On Me ...
TTITLE3=The Sweetest Thing
TTITLE4=Onley Love ...
TTITLE5=When You Were Sweet Sixteen ...
TTITLE6=Wolverton Mountain ...
EXTD=
EXTT0=
EXTT1=
EXTT2=
EXTT3=
EXTT4=
EXTT5=
EXTT6=
PLAYORDER=
